# xmcd CD database file generated by Grip 2.95
# 
# Track frame offsets:
#       150
#       14393
#       25060
#       38510
#       51122
#       63362
#       78967
#       90939
#       112969
#       127212
#       141427
#       152647
#       167467
#       182300
#       194415
#       206035
#       216828
#       229318
#       241229
#       246434
#       259874
# 
# Disc length: 3661 seconds
# 
# Revision: 3
# Processed by: cddbd v1.4PL0 Copyright (c) Steve Scherf et al.
# Submitted via: Grip 2.95
# 
DISCID=1a0e4b15
DTITLE=Bing Crosby - White Christmas
DYEAR=1900
DGENRE=
TTITLE0=White Christmas
TTITLE1=Silent Night
TTITLE2=I'll be home for Christmas
TTITLE3=Santa Claus is Coming to Town
TTITLE4=Good King Wenceslas
TTITLE5=Twelve Days of Christmas
TTITLE6=First Noel
TTITLE7=Medley
TTITLE8=Silver Bells
TTITLE9=Here Comes Santa Claus
TTITLE10=Rudolph the Red Nosed Reindeer
TTITLE11=Adeste Fideles
TTITLE12=You're all I Want For Christmas
TTITLE13=Jingle Bells
TTITLE14=Happy Holiday
TTITLE15=God Rest Ye Merry Gentlemen
TTITLE16=Sleigh Ride in July
TTITLE17=Let's Start the New Year Right
TTITLE18=I'd Hitch A Ride with Santa Claus
TTITLE19=Faith of Our Fathers
TTITLE20=Adeste Fideles2
EXTD=
EXTT0=
EXTT1=
EXTT2=
EXTT3=
EXTT4=
EXTT5=
EXTT6=
EXTT7=
EXTT8=
EXTT9=
EXTT10=
EXTT11=
EXTT12=
EXTT13=
EXTT14=
EXTT15=
EXTT16=
EXTT17=
EXTT18=
EXTT19=
EXTT20=
PLAYORDER=
